<mxfile host="app.diagrams.net" modified="2024-04-12T15:49:40.548Z" agent="Mozilla/5.0 (Windows NT 10.0; Win64; x64) AppleWebKit/537.36 (KHTML, like Gecko) Chrome/123.0.0.0 Safari/537.36 Edg/123.0.0.0" etag="kOJ-TwvG_aUNVFTkKxpX" version="24.2.3" type="github">
  <diagram name="第 1 页" id="ewnleLoZy3X5R_nvyh3p">
    <mxGraphModel dx="1213" dy="665" grid="1" gridSize="10" guides="1" tooltips="1" connect="1" arrows="1" fold="1" page="1" pageScale="1" pageWidth="827" pageHeight="1169" math="0" shadow="0">
      <root>
        <mxCell id="0" />
        <mxCell id="1" parent="0" />
        <mxCell id="bXwB3TmRqBgJZ9fveNT7-1" value="" style="html=1;dashed=0;whiteSpace=wrap;shape=partialRectangle;right=0;direction=west;rotation=90;" parent="1" vertex="1">
          <mxGeometry x="205" y="345" width="340" height="120" as="geometry" />
        </mxCell>
        <mxCell id="bXwB3TmRqBgJZ9fveNT7-2" value="" style="endArrow=classic;html=1;rounded=0;" parent="1" edge="1">
          <mxGeometry width="50" height="50" relative="1" as="geometry">
            <mxPoint x="240" y="235" as="sourcePoint" />
            <mxPoint x="240" y="575" as="targetPoint" />
          </mxGeometry>
        </mxCell>
        <mxCell id="bXwB3TmRqBgJZ9fveNT7-4" value="递减方向" style="edgeLabel;html=1;align=center;verticalAlign=middle;resizable=0;points=[];" parent="bXwB3TmRqBgJZ9fveNT7-2" vertex="1" connectable="0">
          <mxGeometry x="-0.2627" y="-2" relative="1" as="geometry">
            <mxPoint as="offset" />
          </mxGeometry>
        </mxCell>
        <mxCell id="bXwB3TmRqBgJZ9fveNT7-3" value="递减单调栈" style="text;html=1;align=center;verticalAlign=middle;whiteSpace=wrap;rounded=0;" parent="1" vertex="1">
          <mxGeometry x="280" y="610" width="130" height="30" as="geometry" />
        </mxCell>
        <mxCell id="bXwB3TmRqBgJZ9fveNT7-5" value="2" style="rounded=1;whiteSpace=wrap;html=1;" parent="1" vertex="1">
          <mxGeometry x="335" y="510" width="80" height="40" as="geometry" />
        </mxCell>
        <mxCell id="bXwB3TmRqBgJZ9fveNT7-6" value="5" style="rounded=1;whiteSpace=wrap;html=1;" parent="1" vertex="1">
          <mxGeometry x="335" y="440" width="80" height="40" as="geometry" />
        </mxCell>
        <mxCell id="bXwB3TmRqBgJZ9fveNT7-7" value="10" style="rounded=1;whiteSpace=wrap;html=1;fillColor=#d5e8d4;strokeColor=#82b366;" parent="1" vertex="1">
          <mxGeometry x="334" y="360" width="80" height="40" as="geometry" />
        </mxCell>
        <mxCell id="bXwB3TmRqBgJZ9fveNT7-9" value="11" style="rounded=1;whiteSpace=wrap;html=1;fillColor=#f8cecc;strokeColor=#b85450;" parent="1" vertex="1">
          <mxGeometry x="334" y="280" width="80" height="40" as="geometry" />
        </mxCell>
        <mxCell id="bXwB3TmRqBgJZ9fveNT7-12" style="edgeStyle=orthogonalEdgeStyle;rounded=0;orthogonalLoop=1;jettySize=auto;html=1;entryX=1;entryY=0.5;entryDx=0;entryDy=0;curved=1;" parent="1" source="bXwB3TmRqBgJZ9fveNT7-10" target="bXwB3TmRqBgJZ9fveNT7-1" edge="1">
          <mxGeometry relative="1" as="geometry">
            <Array as="points">
              <mxPoint x="570" y="90" />
              <mxPoint x="375" y="90" />
            </Array>
          </mxGeometry>
        </mxCell>
        <mxCell id="bXwB3TmRqBgJZ9fveNT7-10" value="4" style="rounded=1;whiteSpace=wrap;html=1;fillColor=#d5e8d4;strokeColor=#82b366;" parent="1" vertex="1">
          <mxGeometry x="545" y="280" width="80" height="40" as="geometry" />
        </mxCell>
        <mxCell id="bXwB3TmRqBgJZ9fveNT7-13" value="对于递减单调栈，如果将要插入的元素小于栈顶元素，那么我们就可以找出栈顶元素左边第一个比其小的元素和右边第一个比其更小的元素，分别为10和4" style="text;html=1;align=center;verticalAlign=middle;whiteSpace=wrap;rounded=0;" parent="1" vertex="1">
          <mxGeometry x="520" y="400" width="130" height="30" as="geometry" />
        </mxCell>
        <mxCell id="bXwB3TmRqBgJZ9fveNT7-14" value="序列：2、5、10、11、4、6" style="text;html=1;align=center;verticalAlign=middle;whiteSpace=wrap;rounded=0;" parent="1" vertex="1">
          <mxGeometry x="545" y="30" width="190" height="30" as="geometry" />
        </mxCell>
        <mxCell id="bXwB3TmRqBgJZ9fveNT7-17" value="" style="endArrow=classic;html=1;rounded=0;" parent="1" source="bXwB3TmRqBgJZ9fveNT7-13" edge="1">
          <mxGeometry width="50" height="50" relative="1" as="geometry">
            <mxPoint x="630" y="570" as="sourcePoint" />
            <mxPoint x="585" y="560" as="targetPoint" />
          </mxGeometry>
        </mxCell>
        <mxCell id="bXwB3TmRqBgJZ9fveNT7-18" value="11：左10，右4" style="text;html=1;align=center;verticalAlign=middle;whiteSpace=wrap;rounded=0;" parent="1" vertex="1">
          <mxGeometry x="555" y="585" width="85" height="30" as="geometry" />
        </mxCell>
        <mxCell id="bXwB3TmRqBgJZ9fveNT7-20" value="" style="html=1;dashed=0;whiteSpace=wrap;shape=partialRectangle;right=0;direction=west;rotation=90;" parent="1" vertex="1">
          <mxGeometry x="650" y="345" width="340" height="120" as="geometry" />
        </mxCell>
        <mxCell id="bXwB3TmRqBgJZ9fveNT7-21" value="2" style="rounded=1;whiteSpace=wrap;html=1;" parent="1" vertex="1">
          <mxGeometry x="780" y="510" width="80" height="40" as="geometry" />
        </mxCell>
        <mxCell id="bXwB3TmRqBgJZ9fveNT7-22" value="5" style="rounded=1;whiteSpace=wrap;html=1;fillColor=#d5e8d4;strokeColor=#82b366;" parent="1" vertex="1">
          <mxGeometry x="780" y="440" width="80" height="40" as="geometry" />
        </mxCell>
        <mxCell id="bXwB3TmRqBgJZ9fveNT7-23" value="10" style="rounded=1;whiteSpace=wrap;html=1;fillColor=#f8cecc;strokeColor=#b85450;" parent="1" vertex="1">
          <mxGeometry x="780" y="360" width="80" height="40" as="geometry" />
        </mxCell>
        <mxCell id="bXwB3TmRqBgJZ9fveNT7-25" style="edgeStyle=orthogonalEdgeStyle;rounded=0;orthogonalLoop=1;jettySize=auto;html=1;entryX=1;entryY=0.5;entryDx=0;entryDy=0;curved=1;" parent="1" source="bXwB3TmRqBgJZ9fveNT7-24" target="bXwB3TmRqBgJZ9fveNT7-20" edge="1">
          <mxGeometry relative="1" as="geometry">
            <Array as="points">
              <mxPoint x="1010" y="90" />
              <mxPoint x="820" y="90" />
            </Array>
          </mxGeometry>
        </mxCell>
        <mxCell id="bXwB3TmRqBgJZ9fveNT7-24" value="4" style="rounded=1;whiteSpace=wrap;html=1;fillColor=#d5e8d4;strokeColor=#82b366;" parent="1" vertex="1">
          <mxGeometry x="990" y="280" width="80" height="40" as="geometry" />
        </mxCell>
        <mxCell id="bXwB3TmRqBgJZ9fveNT7-26" value="10：左5右4" style="text;html=1;align=center;verticalAlign=middle;whiteSpace=wrap;rounded=0;" parent="1" vertex="1">
          <mxGeometry x="905" y="610" width="85" height="30" as="geometry" />
        </mxCell>
        <mxCell id="bXwB3TmRqBgJZ9fveNT7-28" value="" style="html=1;dashed=0;whiteSpace=wrap;shape=partialRectangle;right=0;direction=west;rotation=90;" parent="1" vertex="1">
          <mxGeometry x="1060" y="365" width="340" height="120" as="geometry" />
        </mxCell>
        <mxCell id="bXwB3TmRqBgJZ9fveNT7-29" value="2" style="rounded=1;whiteSpace=wrap;html=1;fillColor=#d5e8d4;strokeColor=#82b366;" parent="1" vertex="1">
          <mxGeometry x="1190" y="530" width="80" height="40" as="geometry" />
        </mxCell>
        <mxCell id="bXwB3TmRqBgJZ9fveNT7-30" value="5" style="rounded=1;whiteSpace=wrap;html=1;fillColor=#f8cecc;strokeColor=#b85450;" parent="1" vertex="1">
          <mxGeometry x="1190" y="460" width="80" height="40" as="geometry" />
        </mxCell>
        <mxCell id="bXwB3TmRqBgJZ9fveNT7-32" style="edgeStyle=orthogonalEdgeStyle;rounded=0;orthogonalLoop=1;jettySize=auto;html=1;entryX=1;entryY=0.5;entryDx=0;entryDy=0;curved=1;" parent="1" source="bXwB3TmRqBgJZ9fveNT7-33" target="bXwB3TmRqBgJZ9fveNT7-28" edge="1">
          <mxGeometry relative="1" as="geometry">
            <Array as="points">
              <mxPoint x="1420" y="110" />
              <mxPoint x="1230" y="110" />
            </Array>
          </mxGeometry>
        </mxCell>
        <mxCell id="bXwB3TmRqBgJZ9fveNT7-33" value="4" style="rounded=1;whiteSpace=wrap;html=1;fillColor=#d5e8d4;strokeColor=#82b366;" parent="1" vertex="1">
          <mxGeometry x="1400" y="300" width="80" height="40" as="geometry" />
        </mxCell>
        <mxCell id="bXwB3TmRqBgJZ9fveNT7-34" value="5：左2右4" style="text;html=1;align=center;verticalAlign=middle;whiteSpace=wrap;rounded=0;" parent="1" vertex="1">
          <mxGeometry x="1330" y="610" width="85" height="30" as="geometry" />
        </mxCell>
        <mxCell id="bXwB3TmRqBgJZ9fveNT7-35" value="" style="html=1;dashed=0;whiteSpace=wrap;shape=partialRectangle;right=0;direction=west;rotation=90;" parent="1" vertex="1">
          <mxGeometry x="1480" y="375" width="340" height="120" as="geometry" />
        </mxCell>
        <mxCell id="bXwB3TmRqBgJZ9fveNT7-36" value="2" style="rounded=1;whiteSpace=wrap;html=1;" parent="1" vertex="1">
          <mxGeometry x="1610" y="540" width="80" height="40" as="geometry" />
        </mxCell>
        <mxCell id="bXwB3TmRqBgJZ9fveNT7-40" value="4" style="rounded=1;whiteSpace=wrap;html=1;" parent="1" vertex="1">
          <mxGeometry x="1610" y="480" width="80" height="40" as="geometry" />
        </mxCell>
        <mxCell id="bXwB3TmRqBgJZ9fveNT7-41" value="10：左5右4" style="text;html=1;align=center;verticalAlign=middle;whiteSpace=wrap;rounded=0;" parent="1" vertex="1">
          <mxGeometry x="1735" y="640" width="85" height="30" as="geometry" />
        </mxCell>
        <mxCell id="bXwB3TmRqBgJZ9fveNT7-42" value="6" style="rounded=1;whiteSpace=wrap;html=1;" parent="1" vertex="1">
          <mxGeometry x="1610" y="415" width="80" height="40" as="geometry" />
        </mxCell>
        <mxCell id="0DS2U9l0eUhZTR6tqigi-1" value="" style="html=1;dashed=0;whiteSpace=wrap;shape=partialRectangle;right=0;direction=west;rotation=90;" vertex="1" parent="1">
          <mxGeometry x="200" y="950" width="340" height="120" as="geometry" />
        </mxCell>
        <mxCell id="0DS2U9l0eUhZTR6tqigi-2" value="" style="endArrow=classic;html=1;rounded=0;" edge="1" parent="1">
          <mxGeometry width="50" height="50" relative="1" as="geometry">
            <mxPoint x="235" y="840" as="sourcePoint" />
            <mxPoint x="235" y="1180" as="targetPoint" />
          </mxGeometry>
        </mxCell>
        <mxCell id="0DS2U9l0eUhZTR6tqigi-3" value="递增方向" style="edgeLabel;html=1;align=center;verticalAlign=middle;resizable=0;points=[];" vertex="1" connectable="0" parent="0DS2U9l0eUhZTR6tqigi-2">
          <mxGeometry x="-0.2627" y="-2" relative="1" as="geometry">
            <mxPoint as="offset" />
          </mxGeometry>
        </mxCell>
        <mxCell id="0DS2U9l0eUhZTR6tqigi-4" value="递减单调栈" style="text;html=1;align=center;verticalAlign=middle;whiteSpace=wrap;rounded=0;" vertex="1" parent="1">
          <mxGeometry x="275" y="1215" width="130" height="30" as="geometry" />
        </mxCell>
        <mxCell id="0DS2U9l0eUhZTR6tqigi-5" value="73" style="rounded=1;whiteSpace=wrap;html=1;fillColor=#fff2cc;strokeColor=#d6b656;" vertex="1" parent="1">
          <mxGeometry x="330" y="1115" width="80" height="40" as="geometry" />
        </mxCell>
        <mxCell id="0DS2U9l0eUhZTR6tqigi-10" value="序列：[73,74,75,71,69,72,76,73]" style="text;whiteSpace=wrap;html=1;" vertex="1" parent="1">
          <mxGeometry x="130" y="730" width="260" height="40" as="geometry" />
        </mxCell>
        <mxCell id="0DS2U9l0eUhZTR6tqigi-12" style="edgeStyle=orthogonalEdgeStyle;rounded=0;orthogonalLoop=1;jettySize=auto;html=1;entryX=1;entryY=0.5;entryDx=0;entryDy=0;curved=1;" edge="1" parent="1" source="0DS2U9l0eUhZTR6tqigi-11" target="0DS2U9l0eUhZTR6tqigi-1">
          <mxGeometry relative="1" as="geometry">
            <Array as="points">
              <mxPoint x="560" y="790" />
              <mxPoint x="370" y="790" />
            </Array>
          </mxGeometry>
        </mxCell>
        <mxCell id="0DS2U9l0eUhZTR6tqigi-13" value="74&amp;gt;73，如果插入会破坏递增栈，因此需要收集结果并弹出栈顶元素" style="edgeLabel;html=1;align=center;verticalAlign=middle;resizable=0;points=[];" vertex="1" connectable="0" parent="0DS2U9l0eUhZTR6tqigi-12">
          <mxGeometry x="0.2757" y="-3" relative="1" as="geometry">
            <mxPoint y="-17" as="offset" />
          </mxGeometry>
        </mxCell>
        <mxCell id="0DS2U9l0eUhZTR6tqigi-11" value="74" style="rounded=1;whiteSpace=wrap;html=1;fillColor=#f8cecc;strokeColor=#b85450;" vertex="1" parent="1">
          <mxGeometry x="520" y="920" width="80" height="40" as="geometry" />
        </mxCell>
        <mxCell id="0DS2U9l0eUhZTR6tqigi-14" value="栈顶元素73第一个比它大的是74" style="text;html=1;align=center;verticalAlign=middle;whiteSpace=wrap;rounded=0;" vertex="1" parent="1">
          <mxGeometry x="490" y="1185" width="120" height="30" as="geometry" />
        </mxCell>
        <mxCell id="0DS2U9l0eUhZTR6tqigi-16" value="" style="html=1;dashed=0;whiteSpace=wrap;shape=partialRectangle;right=0;direction=west;rotation=90;" vertex="1" parent="1">
          <mxGeometry x="700" y="950" width="340" height="120" as="geometry" />
        </mxCell>
        <mxCell id="0DS2U9l0eUhZTR6tqigi-17" value="" style="endArrow=classic;html=1;rounded=0;" edge="1" parent="1">
          <mxGeometry width="50" height="50" relative="1" as="geometry">
            <mxPoint x="735" y="840" as="sourcePoint" />
            <mxPoint x="735" y="1180" as="targetPoint" />
          </mxGeometry>
        </mxCell>
        <mxCell id="0DS2U9l0eUhZTR6tqigi-18" value="递增方向" style="edgeLabel;html=1;align=center;verticalAlign=middle;resizable=0;points=[];" vertex="1" connectable="0" parent="0DS2U9l0eUhZTR6tqigi-17">
          <mxGeometry x="-0.2627" y="-2" relative="1" as="geometry">
            <mxPoint as="offset" />
          </mxGeometry>
        </mxCell>
        <mxCell id="0DS2U9l0eUhZTR6tqigi-19" value="递减单调栈" style="text;html=1;align=center;verticalAlign=middle;whiteSpace=wrap;rounded=0;" vertex="1" parent="1">
          <mxGeometry x="775" y="1215" width="130" height="30" as="geometry" />
        </mxCell>
        <mxCell id="0DS2U9l0eUhZTR6tqigi-20" value="74" style="rounded=1;whiteSpace=wrap;html=1;fillColor=#fff2cc;strokeColor=#d6b656;" vertex="1" parent="1">
          <mxGeometry x="830" y="1115" width="80" height="40" as="geometry" />
        </mxCell>
        <mxCell id="0DS2U9l0eUhZTR6tqigi-21" style="edgeStyle=orthogonalEdgeStyle;rounded=0;orthogonalLoop=1;jettySize=auto;html=1;entryX=1;entryY=0.5;entryDx=0;entryDy=0;curved=1;" edge="1" parent="1" source="0DS2U9l0eUhZTR6tqigi-23" target="0DS2U9l0eUhZTR6tqigi-16">
          <mxGeometry relative="1" as="geometry">
            <Array as="points">
              <mxPoint x="1060" y="790" />
              <mxPoint x="870" y="790" />
            </Array>
          </mxGeometry>
        </mxCell>
        <mxCell id="0DS2U9l0eUhZTR6tqigi-22" value="74&amp;gt;75，如果插入会破坏递增栈，因此需要收集结果并弹出栈顶元素" style="edgeLabel;html=1;align=center;verticalAlign=middle;resizable=0;points=[];" vertex="1" connectable="0" parent="0DS2U9l0eUhZTR6tqigi-21">
          <mxGeometry x="0.2757" y="-3" relative="1" as="geometry">
            <mxPoint y="-17" as="offset" />
          </mxGeometry>
        </mxCell>
        <mxCell id="0DS2U9l0eUhZTR6tqigi-23" value="75" style="rounded=1;whiteSpace=wrap;html=1;fillColor=#f8cecc;strokeColor=#b85450;" vertex="1" parent="1">
          <mxGeometry x="1020" y="920" width="80" height="40" as="geometry" />
        </mxCell>
        <mxCell id="0DS2U9l0eUhZTR6tqigi-24" value="栈顶元素74第一个比它大的是75" style="text;html=1;align=center;verticalAlign=middle;whiteSpace=wrap;rounded=0;" vertex="1" parent="1">
          <mxGeometry x="990" y="1185" width="120" height="30" as="geometry" />
        </mxCell>
        <mxCell id="0DS2U9l0eUhZTR6tqigi-25" value="" style="html=1;dashed=0;whiteSpace=wrap;shape=partialRectangle;right=0;direction=west;rotation=90;" vertex="1" parent="1">
          <mxGeometry x="1190" y="950" width="340" height="120" as="geometry" />
        </mxCell>
        <mxCell id="0DS2U9l0eUhZTR6tqigi-26" value="" style="endArrow=classic;html=1;rounded=0;" edge="1" parent="1">
          <mxGeometry width="50" height="50" relative="1" as="geometry">
            <mxPoint x="1225" y="840" as="sourcePoint" />
            <mxPoint x="1225" y="1180" as="targetPoint" />
          </mxGeometry>
        </mxCell>
        <mxCell id="0DS2U9l0eUhZTR6tqigi-27" value="递增方向" style="edgeLabel;html=1;align=center;verticalAlign=middle;resizable=0;points=[];" vertex="1" connectable="0" parent="0DS2U9l0eUhZTR6tqigi-26">
          <mxGeometry x="-0.2627" y="-2" relative="1" as="geometry">
            <mxPoint as="offset" />
          </mxGeometry>
        </mxCell>
        <mxCell id="0DS2U9l0eUhZTR6tqigi-28" value="递减单调栈" style="text;html=1;align=center;verticalAlign=middle;whiteSpace=wrap;rounded=0;" vertex="1" parent="1">
          <mxGeometry x="1265" y="1215" width="130" height="30" as="geometry" />
        </mxCell>
        <mxCell id="0DS2U9l0eUhZTR6tqigi-29" value="75" style="rounded=1;whiteSpace=wrap;html=1;fillColor=#d5e8d4;strokeColor=#82b366;" vertex="1" parent="1">
          <mxGeometry x="1320" y="1115" width="80" height="40" as="geometry" />
        </mxCell>
        <mxCell id="0DS2U9l0eUhZTR6tqigi-30" style="edgeStyle=orthogonalEdgeStyle;rounded=0;orthogonalLoop=1;jettySize=auto;html=1;entryX=1;entryY=0.5;entryDx=0;entryDy=0;curved=1;" edge="1" parent="1" source="0DS2U9l0eUhZTR6tqigi-32" target="0DS2U9l0eUhZTR6tqigi-25">
          <mxGeometry relative="1" as="geometry">
            <Array as="points">
              <mxPoint x="1550" y="790" />
              <mxPoint x="1360" y="790" />
            </Array>
          </mxGeometry>
        </mxCell>
        <mxCell id="0DS2U9l0eUhZTR6tqigi-31" value="71&amp;lt;75，符合单栈规则，直接插入&lt;br&gt;69同理" style="edgeLabel;html=1;align=center;verticalAlign=middle;resizable=0;points=[];" vertex="1" connectable="0" parent="0DS2U9l0eUhZTR6tqigi-30">
          <mxGeometry x="0.2757" y="-3" relative="1" as="geometry">
            <mxPoint y="-17" as="offset" />
          </mxGeometry>
        </mxCell>
        <mxCell id="0DS2U9l0eUhZTR6tqigi-32" value="71" style="rounded=1;whiteSpace=wrap;html=1;fillColor=#f8cecc;strokeColor=#b85450;" vertex="1" parent="1">
          <mxGeometry x="1510" y="920" width="80" height="40" as="geometry" />
        </mxCell>
        <mxCell id="0DS2U9l0eUhZTR6tqigi-34" value="69" style="rounded=1;whiteSpace=wrap;html=1;fillColor=#f8cecc;strokeColor=#b85450;" vertex="1" parent="1">
          <mxGeometry x="1510" y="1000" width="80" height="40" as="geometry" />
        </mxCell>
        <mxCell id="0DS2U9l0eUhZTR6tqigi-35" value="" style="html=1;dashed=0;whiteSpace=wrap;shape=partialRectangle;right=0;direction=west;rotation=90;" vertex="1" parent="1">
          <mxGeometry x="1640" y="950" width="340" height="120" as="geometry" />
        </mxCell>
        <mxCell id="0DS2U9l0eUhZTR6tqigi-36" value="" style="endArrow=classic;html=1;rounded=0;" edge="1" parent="1">
          <mxGeometry width="50" height="50" relative="1" as="geometry">
            <mxPoint x="1675" y="840" as="sourcePoint" />
            <mxPoint x="1675" y="1180" as="targetPoint" />
          </mxGeometry>
        </mxCell>
        <mxCell id="0DS2U9l0eUhZTR6tqigi-37" value="递增方向" style="edgeLabel;html=1;align=center;verticalAlign=middle;resizable=0;points=[];" vertex="1" connectable="0" parent="0DS2U9l0eUhZTR6tqigi-36">
          <mxGeometry x="-0.2627" y="-2" relative="1" as="geometry">
            <mxPoint as="offset" />
          </mxGeometry>
        </mxCell>
        <mxCell id="0DS2U9l0eUhZTR6tqigi-38" value="递减单调栈" style="text;html=1;align=center;verticalAlign=middle;whiteSpace=wrap;rounded=0;" vertex="1" parent="1">
          <mxGeometry x="1715" y="1215" width="130" height="30" as="geometry" />
        </mxCell>
        <mxCell id="0DS2U9l0eUhZTR6tqigi-39" value="75" style="rounded=1;whiteSpace=wrap;html=1;fillColor=#d5e8d4;strokeColor=#82b366;" vertex="1" parent="1">
          <mxGeometry x="1770" y="1115" width="80" height="40" as="geometry" />
        </mxCell>
        <mxCell id="0DS2U9l0eUhZTR6tqigi-42" value="71" style="rounded=1;whiteSpace=wrap;html=1;fillColor=#fff2cc;strokeColor=#d6b656;" vertex="1" parent="1">
          <mxGeometry x="1770" y="1040" width="80" height="40" as="geometry" />
        </mxCell>
        <mxCell id="0DS2U9l0eUhZTR6tqigi-43" value="栈顶元素69第一个比它大的是72;&lt;br&gt;同理&lt;br&gt;栈顶元素71第一个比它大的是72" style="text;html=1;align=center;verticalAlign=middle;whiteSpace=wrap;rounded=0;" vertex="1" parent="1">
          <mxGeometry x="1930" y="1185" width="120" height="30" as="geometry" />
        </mxCell>
        <mxCell id="0DS2U9l0eUhZTR6tqigi-44" value="69" style="rounded=1;whiteSpace=wrap;html=1;fillColor=#fff2cc;strokeColor=#d6b656;" vertex="1" parent="1">
          <mxGeometry x="1770" y="960" width="80" height="40" as="geometry" />
        </mxCell>
        <mxCell id="0DS2U9l0eUhZTR6tqigi-47" style="edgeStyle=orthogonalEdgeStyle;rounded=0;orthogonalLoop=1;jettySize=auto;html=1;entryX=1;entryY=0.5;entryDx=0;entryDy=0;curved=1;" edge="1" parent="1" source="0DS2U9l0eUhZTR6tqigi-46" target="0DS2U9l0eUhZTR6tqigi-35">
          <mxGeometry relative="1" as="geometry">
            <Array as="points">
              <mxPoint x="1990" y="790" />
              <mxPoint x="1810" y="790" />
            </Array>
          </mxGeometry>
        </mxCell>
        <mxCell id="0DS2U9l0eUhZTR6tqigi-48" value="72&amp;gt;69，如果插入会破坏递增栈，因此需要收集结果并弹出栈顶元素" style="edgeLabel;html=1;align=center;verticalAlign=middle;resizable=0;points=[];" vertex="1" connectable="0" parent="0DS2U9l0eUhZTR6tqigi-47">
          <mxGeometry x="0.4539" y="2" relative="1" as="geometry">
            <mxPoint y="-12" as="offset" />
          </mxGeometry>
        </mxCell>
        <mxCell id="0DS2U9l0eUhZTR6tqigi-46" value="72" style="rounded=1;whiteSpace=wrap;html=1;fillColor=#f8cecc;strokeColor=#b85450;" vertex="1" parent="1">
          <mxGeometry x="1950" y="1030" width="80" height="40" as="geometry" />
        </mxCell>
        <mxCell id="0DS2U9l0eUhZTR6tqigi-49" value="" style="html=1;dashed=0;whiteSpace=wrap;shape=partialRectangle;right=0;direction=west;rotation=90;" vertex="1" parent="1">
          <mxGeometry x="2110" y="952.5" width="340" height="120" as="geometry" />
        </mxCell>
        <mxCell id="0DS2U9l0eUhZTR6tqigi-50" value="" style="endArrow=classic;html=1;rounded=0;" edge="1" parent="1">
          <mxGeometry width="50" height="50" relative="1" as="geometry">
            <mxPoint x="2145" y="842.5" as="sourcePoint" />
            <mxPoint x="2145" y="1182.5" as="targetPoint" />
          </mxGeometry>
        </mxCell>
        <mxCell id="0DS2U9l0eUhZTR6tqigi-51" value="递增方向" style="edgeLabel;html=1;align=center;verticalAlign=middle;resizable=0;points=[];" vertex="1" connectable="0" parent="0DS2U9l0eUhZTR6tqigi-50">
          <mxGeometry x="-0.2627" y="-2" relative="1" as="geometry">
            <mxPoint as="offset" />
          </mxGeometry>
        </mxCell>
        <mxCell id="0DS2U9l0eUhZTR6tqigi-52" value="递减单调栈" style="text;html=1;align=center;verticalAlign=middle;whiteSpace=wrap;rounded=0;" vertex="1" parent="1">
          <mxGeometry x="2185" y="1217.5" width="130" height="30" as="geometry" />
        </mxCell>
        <mxCell id="0DS2U9l0eUhZTR6tqigi-53" value="75" style="rounded=1;whiteSpace=wrap;html=1;fillColor=#fff2cc;strokeColor=#d6b656;" vertex="1" parent="1">
          <mxGeometry x="2240" y="1117.5" width="80" height="40" as="geometry" />
        </mxCell>
        <mxCell id="0DS2U9l0eUhZTR6tqigi-54" value="72" style="rounded=1;whiteSpace=wrap;html=1;fillColor=#fff2cc;strokeColor=#d6b656;" vertex="1" parent="1">
          <mxGeometry x="2240" y="1042.5" width="80" height="40" as="geometry" />
        </mxCell>
        <mxCell id="0DS2U9l0eUhZTR6tqigi-55" value="栈顶元素72第一个比它更大的元素是76.&lt;br&gt;75同理" style="text;html=1;align=center;verticalAlign=middle;whiteSpace=wrap;rounded=0;" vertex="1" parent="1">
          <mxGeometry x="2400" y="1187.5" width="120" height="30" as="geometry" />
        </mxCell>
        <mxCell id="0DS2U9l0eUhZTR6tqigi-57" style="edgeStyle=orthogonalEdgeStyle;rounded=0;orthogonalLoop=1;jettySize=auto;html=1;entryX=1;entryY=0.5;entryDx=0;entryDy=0;curved=1;" edge="1" parent="1" source="0DS2U9l0eUhZTR6tqigi-59" target="0DS2U9l0eUhZTR6tqigi-49">
          <mxGeometry relative="1" as="geometry">
            <Array as="points">
              <mxPoint x="2460" y="792.5" />
              <mxPoint x="2280" y="792.5" />
            </Array>
          </mxGeometry>
        </mxCell>
        <mxCell id="0DS2U9l0eUhZTR6tqigi-58" value="76&amp;gt;72，如果插入会破坏递增栈，因此需要收集结果并弹出栈顶元素" style="edgeLabel;html=1;align=center;verticalAlign=middle;resizable=0;points=[];" vertex="1" connectable="0" parent="0DS2U9l0eUhZTR6tqigi-57">
          <mxGeometry x="0.4539" y="2" relative="1" as="geometry">
            <mxPoint y="-12" as="offset" />
          </mxGeometry>
        </mxCell>
        <mxCell id="0DS2U9l0eUhZTR6tqigi-59" value="76" style="rounded=1;whiteSpace=wrap;html=1;fillColor=#f8cecc;strokeColor=#b85450;" vertex="1" parent="1">
          <mxGeometry x="2420" y="1032.5" width="80" height="40" as="geometry" />
        </mxCell>
        <mxCell id="0DS2U9l0eUhZTR6tqigi-60" value="" style="html=1;dashed=0;whiteSpace=wrap;shape=partialRectangle;right=0;direction=west;rotation=90;" vertex="1" parent="1">
          <mxGeometry x="2610" y="950" width="340" height="120" as="geometry" />
        </mxCell>
        <mxCell id="0DS2U9l0eUhZTR6tqigi-61" value="" style="endArrow=classic;html=1;rounded=0;" edge="1" parent="1">
          <mxGeometry width="50" height="50" relative="1" as="geometry">
            <mxPoint x="2645" y="840" as="sourcePoint" />
            <mxPoint x="2645" y="1180" as="targetPoint" />
          </mxGeometry>
        </mxCell>
        <mxCell id="0DS2U9l0eUhZTR6tqigi-62" value="递增方向" style="edgeLabel;html=1;align=center;verticalAlign=middle;resizable=0;points=[];" vertex="1" connectable="0" parent="0DS2U9l0eUhZTR6tqigi-61">
          <mxGeometry x="-0.2627" y="-2" relative="1" as="geometry">
            <mxPoint as="offset" />
          </mxGeometry>
        </mxCell>
        <mxCell id="0DS2U9l0eUhZTR6tqigi-63" value="递减单调栈" style="text;html=1;align=center;verticalAlign=middle;whiteSpace=wrap;rounded=0;" vertex="1" parent="1">
          <mxGeometry x="2685" y="1215" width="130" height="30" as="geometry" />
        </mxCell>
        <mxCell id="0DS2U9l0eUhZTR6tqigi-64" value="76" style="rounded=1;whiteSpace=wrap;html=1;fillColor=#fff2cc;strokeColor=#d6b656;" vertex="1" parent="1">
          <mxGeometry x="2740" y="1115" width="80" height="40" as="geometry" />
        </mxCell>
        <mxCell id="0DS2U9l0eUhZTR6tqigi-66" value="最后76和73以单调栈的规则存在于栈中，表明他们的右边没有比他们更大的数了" style="text;html=1;align=center;verticalAlign=middle;whiteSpace=wrap;rounded=0;" vertex="1" parent="1">
          <mxGeometry x="2900" y="1185" width="120" height="30" as="geometry" />
        </mxCell>
        <mxCell id="0DS2U9l0eUhZTR6tqigi-67" style="edgeStyle=orthogonalEdgeStyle;rounded=0;orthogonalLoop=1;jettySize=auto;html=1;entryX=1;entryY=0.5;entryDx=0;entryDy=0;curved=1;" edge="1" parent="1" source="0DS2U9l0eUhZTR6tqigi-69" target="0DS2U9l0eUhZTR6tqigi-60">
          <mxGeometry relative="1" as="geometry">
            <Array as="points">
              <mxPoint x="2960" y="790" />
              <mxPoint x="2780" y="790" />
            </Array>
          </mxGeometry>
        </mxCell>
        <mxCell id="0DS2U9l0eUhZTR6tqigi-68" value="73&amp;lt;76，符合单栈规则" style="edgeLabel;html=1;align=center;verticalAlign=middle;resizable=0;points=[];" vertex="1" connectable="0" parent="0DS2U9l0eUhZTR6tqigi-67">
          <mxGeometry x="0.4539" y="2" relative="1" as="geometry">
            <mxPoint y="-12" as="offset" />
          </mxGeometry>
        </mxCell>
        <mxCell id="0DS2U9l0eUhZTR6tqigi-69" value="73" style="rounded=1;whiteSpace=wrap;html=1;fillColor=#f8cecc;strokeColor=#b85450;" vertex="1" parent="1">
          <mxGeometry x="2920" y="1030" width="80" height="40" as="geometry" />
        </mxCell>
      </root>
    </mxGraphModel>
  </diagram>
</mxfile>
